<svg xmlns="http://www.w3.org/2000/svg" viewBox="0 0 116.81 249.56"><defs><style>.cls-1{fill:#fff;}</style></defs><title>Risorsa 1</title><g id="Livello_2" data-name="Livello 2"><g id="Livello_1-2" data-name="Livello 1"><path class="cls-1" d="M109.19,134A218,218,0,0,0,85.52,74.4a76.55,76.55,0,0,0,1.76-16,59.53,59.53,0,0,0-3.06-19.31,50.38,50.38,0,0,0-23-27.56C48.78,4.28,31.63,0,8,0A8,8,0,0,0,8,16c14.48,0,25.67,1.77,34.19,4.53C55,24.73,61.77,30.86,65.87,37.42s5.41,14.09,5.41,21c0,1.47-.07,2.89-.17,4.26a5.67,5.67,0,0,0-1.54.76L40.65,83.56a8,8,0,0,0-2.82,1.87,57.23,57.23,0,0,0-7.27,9.72c-3.51,5.86-7.27,14.13-7.31,24A36.6,36.6,0,0,0,30,140.34c4.81,6.93,12.26,13.24,22.86,18.76a8,8,0,0,0,2.95.86c-2.93,15-10.13,38.52-27.54,71.22a12.5,12.5,0,1,0,22.06,11.75c18.59-34.88,26.71-61,30.12-78.72l8.25-.88c1.51,15.49,3.1,39.83,3.1,73.72a12.5,12.5,0,1,0,25,0c0-67-6.07-98.48-6.23-99.32A12.54,12.54,0,0,0,109.19,134Zm-66-2.79a20.48,20.48,0,0,1-3.91-12,29.32,29.32,0,0,1,3.42-12.91A165.1,165.1,0,0,1,56.86,143C50,139,45.72,134.91,43.15,131.21Z"/><circle class="cls-1" cx="40.2" cy="51.27" r="22.49" transform="translate(-10.46 10.3) rotate(-12.94)"/></g></g></svg>