<svg xmlns="http://www.w3.org/2000/svg" viewBox="0 0 90 90"><defs><style>.cls-1{fill:#fff;}</style></defs><title>Risorsa 1</title><g id="Livello_2" data-name="Livello 2"><g id="Livello_1-2" data-name="Livello 1"><path class="cls-1" d="M23.5,59.5l7,7S55,49,72.5,31.5,90,0,90,0,76,0,58.5,17.5,23.5,59.5,23.5,59.5Z"/><path class="cls-1" d="M14.7,74.2a1.84,1.84,0,0,1,.4-2,1.84,1.84,0,1,1,2.6,2.6,1.84,1.84,0,0,1-2,.4L3,88.1,4.9,90s11.6-9.5,18.6-9.5C23.5,73.5,27,70,27,70l-7-7s-3.5,3.5-10.5,3.5c0,7-9.5,18.6-9.5,18.6L1.9,87Z"/></g></g></svg>