<svg xmlns="http://www.w3.org/2000/svg" viewBox="0 0 439.33 482.86"><defs><style>.cls-1{fill:#fff;}</style></defs><title>Risorsa 1</title><g id="Livello_2" data-name="Livello 2"><g id="Livello_1-2" data-name="Livello 1"><path class="cls-1" d="M219.67,0A24.92,24.92,0,0,0,204,44.34C90.14,52.42,0,147.33,0,263.2,0,384.28,98.54,482.86,219.67,482.86S439.33,384.28,439.33,263.2c0-115.82-90.26-210.74-204.05-218.86A24.87,24.87,0,0,0,219.67,0Zm0,56.47c114,0,206.72,92.72,206.72,206.72S333.67,469.92,219.67,469.92,12.95,377.16,12.95,263.2,105.66,56.47,219.67,56.47Zm98,108.66s-117.17,31.81-140.7,55.34-55.34,140.78-55.34,140.78,117.17-31.77,140.7-55.34,55.34-140.78,55.34-140.78Zm-98,69.34a28.72,28.72,0,1,1-28.72,28.72,28.72,28.72,0,0,1,28.72-28.72Z"/></g></g></svg>